<svg xmlns="http://www.w3.org/2000/svg" viewBox="0 0 64 80" x="0px" y="0px">
    <g data-name="07 Camera">
        <g>
            <path d="M59,15H48.677L45.671,7.486A4.208,4.208,0,0,0,42,5H22a4.207,4.207,0,0,0-3.671,2.485L15.323,15H5a5.006,5.006,0,0,0-5,5V54a5.006,5.006,0,0,0,5,5,1,1,0,0,0,0-2,3,3,0,0,1-3-3V20a3,3,0,0,1,3-3H40a1,1,0,0,0,0-2H17.477l2.709-6.772A2.206,2.206,0,0,1,22,7H42a2.2,2.2,0,0,1,1.814,1.229L46.522,15H44a1,1,0,0,0,0,2H59a3,3,0,0,1,3,3V54a3,3,0,0,1-3,3H9a1,1,0,0,0,0,2H59a5.006,5.006,0,0,0,5-5V20A5.006,5.006,0,0,0,59,15Z" />
            <path d="M32,53A16,16,0,1,1,48,37,16.019,16.019,0,0,1,32,53Zm0-30A14,14,0,1,0,46,37,14.015,14.015,0,0,0,32,23Z" />
            <path d="M32,47A10,10,0,1,1,42,37,10.011,10.011,0,0,1,32,47Zm0-18a8,8,0,1,0,8,8A8.009,8.009,0,0,0,32,29Z" />
            <path d="M51,27a3,3,0,1,1,3-3A3,3,0,0,1,51,27Zm0-4a1,1,0,1,0,1,1A1,1,0,0,0,51,23Z" />
        </g>
    </g>
</svg>